<mxfile host="www.draw.io" modified="2020-01-02T09:58:17.047Z" agent="Mozilla/5.0 (Macintosh; Intel Mac OS X 10_13_6) AppleWebKit/537.36 (KHTML, like Gecko) Chrome/79.0.3945.88 Safari/537.36" etag="GrjhHW-LAMOty7XNVlbT" version="12.4.8" type="github">
  <diagram id="8RaOye7ji8byRObjD5SU" name="第 1 页">
    <mxGraphModel dx="885" dy="591" grid="1" gridSize="10" guides="1" tooltips="1" connect="1" arrows="1" fold="1" page="1" pageScale="1" pageWidth="1169" pageHeight="827" math="0" shadow="0">
      <root>
        <mxCell id="0"/>
        <mxCell id="1" parent="0"/>
        <mxCell id="vG7ORGfujH-YzOogsXt1-1" style="edgeStyle=orthogonalEdgeStyle;rounded=0;orthogonalLoop=1;jettySize=auto;html=1;exitX=1;exitY=0.5;exitDx=0;exitDy=0;entryX=-0.017;entryY=0.625;entryDx=0;entryDy=0;entryPerimeter=0;" edge="1" treatAsSingle="0" parent="1" source="vG7ORGfujH-YzOogsXt1-5" target="vG7ORGfujH-YzOogsXt1-6">
          <mxGeometry relative="1" as="geometry"/>
        </mxCell>
        <mxCell id="vG7ORGfujH-YzOogsXt1-2" value="读取位置信息" style="text;html=1;align=center;verticalAlign=middle;resizable=0;points=[];labelBackgroundColor=#ffffff;" vertex="1" connectable="0" parent="vG7ORGfujH-YzOogsXt1-1">
          <mxGeometry x="-0.2174" y="1" relative="1" as="geometry">
            <mxPoint x="42" y="-19" as="offset"/>
          </mxGeometry>
        </mxCell>
        <mxCell id="vG7ORGfujH-YzOogsXt1-3" value="&lt;span style=&quot;font-size: 12px&quot;&gt;匹配商户&lt;/span&gt;" style="edgeStyle=orthogonalEdgeStyle;rounded=0;orthogonalLoop=1;jettySize=auto;html=1;exitX=0.5;exitY=1;exitDx=0;exitDy=0;entryX=0.5;entryY=0;entryDx=0;entryDy=0;" edge="1" parent="1" source="vG7ORGfujH-YzOogsXt1-5" target="vG7ORGfujH-YzOogsXt1-15">
          <mxGeometry relative="1" as="geometry"/>
        </mxCell>
        <mxCell id="vG7ORGfujH-YzOogsXt1-4" style="edgeStyle=orthogonalEdgeStyle;rounded=0;orthogonalLoop=1;jettySize=auto;html=1;exitX=0;exitY=0.5;exitDx=0;exitDy=0;entryX=1.008;entryY=0.374;entryDx=0;entryDy=0;entryPerimeter=0;" edge="1" parent="1" source="vG7ORGfujH-YzOogsXt1-5" target="vG7ORGfujH-YzOogsXt1-18">
          <mxGeometry relative="1" as="geometry"/>
        </mxCell>
        <mxCell id="vG7ORGfujH-YzOogsXt1-5" value="push-rpc" style="rounded=0;whiteSpace=wrap;html=1;" vertex="1" parent="1">
          <mxGeometry x="329.99999999999994" y="530" width="120" height="60" as="geometry"/>
        </mxCell>
        <mxCell id="vG7ORGfujH-YzOogsXt1-6" value="位置信息库mysql" style="shape=cylinder;whiteSpace=wrap;html=1;boundedLbl=1;backgroundOutline=1;" vertex="1" parent="1">
          <mxGeometry x="727.0000000000001" y="510" width="60" height="80" as="geometry"/>
        </mxCell>
        <mxCell id="vG7ORGfujH-YzOogsXt1-7" style="edgeStyle=orthogonalEdgeStyle;rounded=0;orthogonalLoop=1;jettySize=auto;html=1;entryX=0.5;entryY=0;entryDx=0;entryDy=0;" edge="1" parent="1" source="vG7ORGfujH-YzOogsXt1-8" target="vG7ORGfujH-YzOogsXt1-6">
          <mxGeometry relative="1" as="geometry"/>
        </mxCell>
        <mxCell id="vG7ORGfujH-YzOogsXt1-8" value="位置信息存储服务" style="rounded=1;whiteSpace=wrap;html=1;" vertex="1" parent="1">
          <mxGeometry x="697.0000000000001" y="370" width="120" height="50" as="geometry"/>
        </mxCell>
        <mxCell id="vG7ORGfujH-YzOogsXt1-9" style="edgeStyle=orthogonalEdgeStyle;rounded=0;orthogonalLoop=1;jettySize=auto;html=1;exitX=0.5;exitY=1;exitDx=0;exitDy=0;entryX=0.5;entryY=0;entryDx=0;entryDy=0;" edge="1" treatAsSingle="0" parent="1" source="vG7ORGfujH-YzOogsXt1-11" target="vG7ORGfujH-YzOogsXt1-8">
          <mxGeometry relative="1" as="geometry"/>
        </mxCell>
        <mxCell id="vG7ORGfujH-YzOogsXt1-10" value="https" style="text;html=1;align=center;verticalAlign=middle;resizable=0;points=[];labelBackgroundColor=#ffffff;" vertex="1" connectable="0" parent="vG7ORGfujH-YzOogsXt1-9">
          <mxGeometry x="-0.1474" y="1" relative="1" as="geometry">
            <mxPoint as="offset"/>
          </mxGeometry>
        </mxCell>
        <mxCell id="vG7ORGfujH-YzOogsXt1-11" value="消费者服务" style="rounded=1;whiteSpace=wrap;html=1;" vertex="1" parent="1">
          <mxGeometry x="697.0000000000001" y="200" width="120" height="60" as="geometry"/>
        </mxCell>
        <mxCell id="vG7ORGfujH-YzOogsXt1-12" style="edgeStyle=orthogonalEdgeStyle;rounded=0;orthogonalLoop=1;jettySize=auto;html=1;exitX=1;exitY=0.5;exitDx=0;exitDy=0;entryX=0;entryY=0.5;entryDx=0;entryDy=0;" edge="1" treatAsSingle="0" parent="1" source="vG7ORGfujH-YzOogsXt1-15" target="vG7ORGfujH-YzOogsXt1-16">
          <mxGeometry relative="1" as="geometry"/>
        </mxCell>
        <mxCell id="vG7ORGfujH-YzOogsXt1-13" value="商户信息入库" style="text;html=1;align=center;verticalAlign=middle;resizable=0;points=[];labelBackgroundColor=#ffffff;" vertex="1" connectable="0" parent="vG7ORGfujH-YzOogsXt1-12">
          <mxGeometry x="-0.3" relative="1" as="geometry">
            <mxPoint x="56" y="-20" as="offset"/>
          </mxGeometry>
        </mxCell>
        <mxCell id="vG7ORGfujH-YzOogsXt1-14" style="edgeStyle=orthogonalEdgeStyle;rounded=0;orthogonalLoop=1;jettySize=auto;html=1;exitX=0;exitY=0.5;exitDx=0;exitDy=0;entryX=1;entryY=0.7;entryDx=0;entryDy=0;" edge="1" parent="1" source="vG7ORGfujH-YzOogsXt1-15" target="vG7ORGfujH-YzOogsXt1-18">
          <mxGeometry relative="1" as="geometry">
            <mxPoint x="140" y="660" as="targetPoint"/>
          </mxGeometry>
        </mxCell>
        <mxCell id="vG7ORGfujH-YzOogsXt1-15" value="merchant-rpc" style="rounded=0;whiteSpace=wrap;html=1;" vertex="1" parent="1">
          <mxGeometry x="329.99999999999994" y="660" width="120" height="60" as="geometry"/>
        </mxCell>
        <mxCell id="vG7ORGfujH-YzOogsXt1-16" value="redis" style="shape=cylinder;whiteSpace=wrap;html=1;boundedLbl=1;backgroundOutline=1;" vertex="1" parent="1">
          <mxGeometry x="727.0000000000001" y="660" width="60" height="60" as="geometry"/>
        </mxCell>
        <mxCell id="vG7ORGfujH-YzOogsXt1-17" value="商户匹配" style="text;html=1;align=center;verticalAlign=middle;resizable=0;points=[];autosize=1;" vertex="1" parent="1">
          <mxGeometry x="570.0000000000001" y="700" width="60" height="20" as="geometry"/>
        </mxCell>
        <mxCell id="vG7ORGfujH-YzOogsXt1-18" value="mysql" style="shape=cylinder;whiteSpace=wrap;html=1;boundedLbl=1;backgroundOutline=1;" vertex="1" parent="1">
          <mxGeometry y="530" width="130" height="190" as="geometry"/>
        </mxCell>
        <mxCell id="vG7ORGfujH-YzOogsXt1-19" value="商户信息入库" style="text;html=1;align=center;verticalAlign=middle;resizable=0;points=[];labelBackgroundColor=#ffffff;" vertex="1" connectable="0" parent="1">
          <mxGeometry x="220" y="690" as="geometry">
            <mxPoint x="56" y="-20" as="offset"/>
          </mxGeometry>
        </mxCell>
        <mxCell id="vG7ORGfujH-YzOogsXt1-20" style="edgeStyle=orthogonalEdgeStyle;rounded=0;orthogonalLoop=1;jettySize=auto;html=1;exitX=0.427;exitY=1;exitDx=0;exitDy=0;exitPerimeter=0;" edge="1" treatAsSingle="0" parent="1" source="vG7ORGfujH-YzOogsXt1-22">
          <mxGeometry relative="1" as="geometry">
            <mxPoint x="349.99999999999994" y="530" as="targetPoint"/>
            <Array as="points">
              <mxPoint x="349.99999999999994" y="530"/>
            </Array>
          </mxGeometry>
        </mxCell>
        <mxCell id="vG7ORGfujH-YzOogsXt1-21" value="simpush消息回执" style="text;html=1;align=center;verticalAlign=middle;resizable=0;points=[];labelBackgroundColor=#ffffff;" vertex="1" connectable="0" parent="vG7ORGfujH-YzOogsXt1-20">
          <mxGeometry x="-0.1471" y="-1" relative="1" as="geometry">
            <mxPoint as="offset"/>
          </mxGeometry>
        </mxCell>
        <mxCell id="vG7ORGfujH-YzOogsXt1-22" value="香港系统" style="rounded=1;whiteSpace=wrap;html=1;" vertex="1" parent="1">
          <mxGeometry width="820" height="120" as="geometry"/>
        </mxCell>
        <mxCell id="vG7ORGfujH-YzOogsXt1-23" value="" style="endArrow=classic;html=1;entryX=0.5;entryY=0;entryDx=0;entryDy=0;exitX=0.923;exitY=1.017;exitDx=0;exitDy=0;exitPerimeter=0;" edge="1" treatAsSingle="0" parent="1" source="vG7ORGfujH-YzOogsXt1-22" target="vG7ORGfujH-YzOogsXt1-11">
          <mxGeometry width="50" height="50" relative="1" as="geometry">
            <mxPoint x="730.0000000000001" y="170" as="sourcePoint"/>
            <mxPoint x="780.0000000000001" y="120" as="targetPoint"/>
          </mxGeometry>
        </mxCell>
        <mxCell id="vG7ORGfujH-YzOogsXt1-24" value="位置上报" style="text;html=1;align=center;verticalAlign=middle;resizable=0;points=[];labelBackgroundColor=#ffffff;" vertex="1" connectable="0" parent="vG7ORGfujH-YzOogsXt1-23">
          <mxGeometry x="-0.0636" relative="1" as="geometry">
            <mxPoint as="offset"/>
          </mxGeometry>
        </mxCell>
        <mxCell id="vG7ORGfujH-YzOogsXt1-25" value="" style="endArrow=classic;html=1;exitX=0.75;exitY=0;exitDx=0;exitDy=0;" edge="1" treatAsSingle="0" parent="1" source="vG7ORGfujH-YzOogsXt1-5">
          <mxGeometry width="50" height="50" relative="1" as="geometry">
            <mxPoint x="389.99999999999994" y="530" as="sourcePoint"/>
            <mxPoint x="419.99999999999994" y="120" as="targetPoint"/>
          </mxGeometry>
        </mxCell>
        <mxCell id="vG7ORGfujH-YzOogsXt1-26" value="请求发送simpush" style="text;html=1;align=center;verticalAlign=middle;resizable=0;points=[];labelBackgroundColor=#ffffff;" vertex="1" connectable="0" parent="vG7ORGfujH-YzOogsXt1-25">
          <mxGeometry x="0.1317" relative="1" as="geometry">
            <mxPoint y="62" as="offset"/>
          </mxGeometry>
        </mxCell>
        <mxCell id="vG7ORGfujH-YzOogsXt1-27" value="MQ" style="rounded=1;whiteSpace=wrap;html=1;" vertex="1" parent="1">
          <mxGeometry x="309.99999999999994" y="70" width="70" height="40" as="geometry"/>
        </mxCell>
        <mxCell id="vG7ORGfujH-YzOogsXt1-28" value="MQ" style="rounded=1;whiteSpace=wrap;html=1;" vertex="1" parent="1">
          <mxGeometry x="721.0000000000001" y="70" width="70" height="40" as="geometry"/>
        </mxCell>
      </root>
    </mxGraphModel>
  </diagram>
</mxfile>
